<svg xmlns="http://www.w3.org/2000/svg" width="120" height="120" viewBox="0 0 120 120">
  <defs>
    <pattern id="asanoha" width="120" height="120" patternUnits="userSpaceOnUse">
      <g fill="none" stroke="#000" stroke-width="1">
        <path d="M30,60 L60,30 L90,60 L60,90 Z" />
        <path d="M0,60 L30,30 L60,60 L30,90 Z" />
        <path d="M60,60 L90,30 L120,60 L90,90 Z" />
        <path d="M30,0 L60,30 L30,60 L0,30 Z" />
        <path d="M90,0 L120,30 L90,60 L60,30 Z" />
        <path d="M30,60 L60,90 L30,120 L0,90 Z" />
        <path d="M90,60 L120,90 L90,120 L60,90 Z" />
      </g>
    </pattern>
    <mask id="fade-mask">
      <rect width="100%" height="100%" fill="white" opacity="0.9" />
    </mask>
  </defs>
  <rect width="100%" height="100%" fill="url(#asanoha)" mask="url(#fade-mask)" />
</svg> 